<svg width="89" height="61" viewBox="0 0 89 61" fill="none" xmlns="http://www.w3.org/2000/svg">
<rect width="89" height="60.0233" rx="13" fill="#323232"/>
<path d="M24.3477 40H20.5059V25.5215C19.1022 26.834 17.4479 27.8047 15.543 28.4336V24.9473C16.5456 24.6191 17.6348 23.9993 18.8105 23.0879C19.9863 22.1673 20.793 21.0964 21.2305 19.875H24.3477V40ZM30.1855 35.3652L33.9043 34.9551C33.9954 35.7116 34.2324 36.2721 34.6152 36.6367C34.998 37.0013 35.5039 37.1836 36.1328 37.1836C36.9258 37.1836 37.6003 36.819 38.1562 36.0898C38.7122 35.3607 39.0677 33.8477 39.2227 31.5508C38.2565 32.6719 37.0488 33.2324 35.5996 33.2324C34.0228 33.2324 32.6602 32.6263 31.5117 31.4141C30.3724 30.1927 29.8027 28.6068 29.8027 26.6562C29.8027 24.6237 30.4043 22.9876 31.6074 21.748C32.8197 20.4993 34.36 19.875 36.2285 19.875C38.2611 19.875 39.929 20.6634 41.2324 22.2402C42.5358 23.8079 43.1875 26.3919 43.1875 29.9922C43.1875 33.6562 42.5085 36.2995 41.1504 37.9219C39.7923 39.5443 38.0241 40.3555 35.8457 40.3555C34.278 40.3555 33.0111 39.9408 32.0449 39.1113C31.0788 38.2728 30.459 37.0241 30.1855 35.3652ZM38.8809 26.9707C38.8809 25.7311 38.5938 24.7695 38.0195 24.0859C37.4544 23.4023 36.7982 23.0605 36.0508 23.0605C35.3398 23.0605 34.7474 23.3431 34.2734 23.9082C33.8086 24.4642 33.5762 25.3802 33.5762 26.6562C33.5762 27.9505 33.8314 28.903 34.3418 29.5137C34.8522 30.1152 35.4902 30.416 36.2559 30.416C36.9941 30.416 37.6139 30.1243 38.1152 29.541C38.6257 28.9577 38.8809 28.1009 38.8809 26.9707ZM45.7715 35.3652L49.4902 34.9551C49.5814 35.7116 49.8184 36.2721 50.2012 36.6367C50.584 37.0013 51.0898 37.1836 51.7188 37.1836C52.5117 37.1836 53.1862 36.819 53.7422 36.0898C54.2982 35.3607 54.6536 33.8477 54.8086 31.5508C53.8424 32.6719 52.6348 33.2324 51.1855 33.2324C49.6087 33.2324 48.2461 32.6263 47.0977 31.4141C45.9583 30.1927 45.3887 28.6068 45.3887 26.6562C45.3887 24.6237 45.9902 22.9876 47.1934 21.748C48.4056 20.4993 49.946 19.875 51.8145 19.875C53.847 19.875 55.515 20.6634 56.8184 22.2402C58.1217 23.8079 58.7734 26.3919 58.7734 29.9922C58.7734 33.6562 58.0944 36.2995 56.7363 37.9219C55.3783 39.5443 53.61 40.3555 51.4316 40.3555C49.8639 40.3555 48.597 39.9408 47.6309 39.1113C46.6647 38.2728 46.0449 37.0241 45.7715 35.3652ZM54.4668 26.9707C54.4668 25.7311 54.1797 24.7695 53.6055 24.0859C53.0404 23.4023 52.3841 23.0605 51.6367 23.0605C50.9258 23.0605 50.3333 23.3431 49.8594 23.9082C49.3945 24.4642 49.1621 25.3802 49.1621 26.6562C49.1621 27.9505 49.4173 28.903 49.9277 29.5137C50.4382 30.1152 51.0762 30.416 51.8418 30.416C52.5801 30.416 53.1999 30.1243 53.7012 29.541C54.2116 28.9577 54.4668 28.1009 54.4668 26.9707ZM61.2754 23.7988V20.2305H74.4141V23.0195C73.3294 24.0859 72.2266 25.6172 71.1055 27.6133C69.9844 29.6094 69.1276 31.7331 68.5352 33.9844C67.9518 36.2266 67.6647 38.2318 67.6738 40H63.9688C64.0326 37.2292 64.6022 34.4036 65.6777 31.5234C66.7624 28.6432 68.207 26.0684 70.0117 23.7988H61.2754Z" fill="#F5F5F5"/>
</svg>
