<svg width="70" height="58" viewBox="0 0 70 58" fill="none" xmlns="http://www.w3.org/2000/svg">
<path d="M7.32935 0.187447C6.03298 0.668419 4.9778 1.69449 4.4502 2.94502C4.17887 3.61838 3.37995 9.96722 3.54576 10.1436C3.59098 10.1917 5.76165 10.2237 8.35439 10.2237H13.1027L13.5399 10.6887C14.2483 11.4582 14.0976 12.7729 13.2233 13.318C12.8465 13.5585 12.2133 13.5905 7.97753 13.5905H3.15384L3.06339 14.1837C3.01817 14.5204 2.64132 18.1117 2.21924 22.1679C1.79717 26.2241 1.42032 29.8153 1.3751 30.136L1.28465 30.7452H12.6806C20.7453 30.7452 24.1671 30.7933 24.4384 30.9216C25.3428 31.3705 25.5087 32.8775 24.7399 33.6471L24.348 34.0319L12.6806 34.08L1.01332 34.112L0.953023 34.4808C0.711838 35.6511 -0.056939 44.2606 0.00335722 44.966C0.169172 46.6814 1.20928 48.2206 2.74684 49.0222C3.42517 49.3749 3.72665 49.423 5.83702 49.4711L8.1735 49.5352L8.36946 48.0763C9.07794 42.4649 13.4193 38.1041 18.8007 37.559C21.1221 37.3185 23.7902 38.3286 25.3881 40.028C27.5738 42.3367 28.3275 45.7355 27.4532 49.1344L27.3628 49.5032H35.141H42.9192V48.6534C42.9343 45.479 45.0145 41.7114 47.9389 39.5791C51.2099 37.2063 55.4457 36.9017 58.5208 38.8416C60.2845 39.9478 61.7768 42.1924 62.1989 44.3407C62.4853 45.7836 62.3949 47.7556 61.9728 49.2146C61.8974 49.4711 62.0331 49.5032 63.4048 49.5032C64.3997 49.5032 65.1685 49.407 65.6358 49.2466C67.2035 48.6855 68.3642 47.435 68.7712 45.9119C69.1028 44.6453 70.0977 34.2082 69.9922 33.0699C69.8716 31.8034 69.4043 30.3444 68.8014 29.3504C68.53 28.9015 65.8921 25.6469 62.9074 22.1038C57.2094 15.322 56.7421 14.8731 54.8277 14.0875C53.863 13.6867 53.7876 13.6867 48.6172 13.6226C44.306 13.5745 43.3714 13.5264 43.3714 13.3501C43.3714 13.2218 43.5523 11.4903 43.7633 9.47021C44.2156 5.25369 44.2005 3.90697 43.703 2.81676C43.2508 1.85482 42.3464 0.892872 41.4419 0.4119L40.7335 0.0431519L24.3027 0.0110893C11.1431 -0.020977 7.7665 0.0110893 7.32935 0.187447ZM31.0559 10.5444C31.6287 11.0254 31.8398 11.827 31.5534 12.5164C31.1464 13.5905 31.1162 13.5905 24.4535 13.5905C19.1474 13.5905 18.4239 13.5585 18.047 13.318C17.1727 12.7729 17.022 11.4582 17.7304 10.6887L18.1676 10.2237H24.4233C30.453 10.2237 30.6791 10.2398 31.0559 10.5444ZM18.3636 20.9494C19.072 21.719 18.9213 23.0336 18.047 23.5787C17.6702 23.8192 16.9466 23.8513 11.6405 23.8513C4.9778 23.8513 4.94765 23.8513 4.54065 22.7771C4.25424 22.0877 4.46528 21.2861 5.03809 20.8051C5.41494 20.5005 5.64105 20.4845 11.6707 20.4845H17.9264L18.3636 20.9494ZM28.011 20.9494C28.7194 21.719 28.5687 23.0336 27.6944 23.5787C27.3628 23.8032 26.8653 23.8513 25.2826 23.8513C23.6998 23.8513 23.2023 23.8032 22.8707 23.5787C21.9964 23.0336 21.8457 21.719 22.5541 20.9494L22.9913 20.4845H25.2826H27.5738L28.011 20.9494ZM52.4912 20.5807C52.6118 20.6448 54.5714 22.8252 56.8175 25.4385C59.0786 28.0518 61.204 30.5208 61.5658 30.9376C62.2592 31.7392 62.3949 32.3966 62.0482 33.1982C61.6562 34.112 61.6864 34.112 53.8479 34.112C45.9189 34.112 45.9642 34.112 45.5572 33.102C45.3913 32.6531 45.4215 31.8194 45.7983 27.0898C46.0395 24.0757 46.2958 21.4625 46.3862 21.2861C46.748 20.5646 47.0646 20.4845 49.7176 20.4845C51.1044 20.4845 52.3556 20.5326 52.4912 20.5807Z" fill="#323232"/>
<path d="M17.5949 41.23C14.972 42.0155 12.6204 44.4204 11.8366 47.1459C11.4296 48.6049 11.4899 50.6891 12.0024 51.7152C13.0727 53.9116 15.3941 55.0018 17.9265 54.4888C21.6498 53.7192 24.5139 50.16 24.5289 46.2962C24.5289 45.1258 24.4686 44.8052 24.0918 43.9715C23.2326 42.0316 21.5895 40.9895 19.4339 41.0215C18.8008 41.0215 17.9717 41.1177 17.5949 41.23Z" fill="#323232"/>
<path d="M51.8129 41.3584C50.3959 41.8875 49.4463 42.5288 48.4212 43.635C45.723 46.5529 45.316 50.7694 47.4866 53.0781C49.1749 54.8737 52.1144 55.0982 54.7373 53.6392C55.9281 52.9658 57.6315 51.1542 58.2646 49.8876C59.2595 47.8515 59.4253 45.6711 58.7017 43.9877C58.1892 42.8173 57.6918 42.2562 56.6064 41.647C55.7472 41.15 55.5211 41.0858 54.2247 41.0538C53.0339 41.0057 52.6269 41.0538 51.8129 41.3584Z" fill="#323232"/>
<path d="M1.13395 54.9057C0.289807 55.4669 0.139066 56.7815 0.847547 57.5351L1.2847 58H3.92266C6.33451 58 6.57569 57.9679 6.93747 57.6794C7.51028 57.1984 7.72132 56.3968 7.43491 55.7074C7.07313 54.7615 6.63599 54.6332 3.92266 54.6332C1.9781 54.6332 1.46558 54.6973 1.13395 54.9057Z" fill="#323232"/>
<path d="M32.488 54.9058C31.6439 55.4669 31.4931 56.7815 32.2016 57.5351L32.6388 58H36.7992C39.5276 58 41.0651 57.9359 41.3214 57.8236C42.2258 57.3747 42.3917 55.8677 41.6229 55.0981L41.231 54.7134L37.0705 54.6813C33.3774 54.6332 32.8498 54.6653 32.488 54.9058Z" fill="#323232"/>
</svg>
