<svg width="49" height="40" viewBox="0 0 49 40" fill="none" xmlns="http://www.w3.org/2000/svg">
<path d="M44.1 0H4.9C2.205 0 0.0245 2.25 0.0245 5L0 35C0 37.75 2.205 40 4.9 40H44.1C46.795 40 49 37.75 49 35V5C49 2.25 46.795 0 44.1 0ZM43.12 10.625L25.7985 21.675C25.0145 22.175 23.9855 22.175 23.2015 21.675L5.88 10.625C5.2675 10.225 4.9 9.55 4.9 8.825C4.9 7.15 6.6885 6.15 8.085 7.025L24.5 17.5L40.915 7.025C42.3115 6.15 44.1 7.15 44.1 8.825C44.1 9.55 43.7325 10.225 43.12 10.625Z" fill="#323232"/>
</svg>
