<svg width="25" height="25" viewBox="0 0 25 25" fill="none" xmlns="http://www.w3.org/2000/svg">
<g clip-path="url(#clip0_113_128)">
<path fill-rule="evenodd" clip-rule="evenodd" d="M7.34665 0.075C8.67961 0.0136363 9.10461 0 12.5001 0C15.8955 0 16.3205 0.0147727 17.6523 0.075C18.9842 0.135227 19.8932 0.347727 20.6887 0.655682C21.5217 0.970455 22.2773 1.4625 22.9023 2.09886C23.5387 2.72273 24.0296 3.47727 24.3432 4.31136C24.6523 5.10682 24.8637 6.01591 24.9251 7.34545C24.9864 8.68068 25.0001 9.10568 25.0001 12.5C25.0001 15.8955 24.9853 16.3205 24.9251 17.6534C24.8648 18.983 24.6523 19.892 24.3432 20.6875C24.0296 21.5217 23.5379 22.2775 22.9023 22.9023C22.2773 23.5386 21.5217 24.0295 20.6887 24.3432C19.8932 24.6523 18.9842 24.8636 17.6546 24.925C16.3205 24.9864 15.8955 25 12.5001 25C9.10461 25 8.67961 24.9852 7.34665 24.925C6.01711 24.8648 5.10802 24.6523 4.31256 24.3432C3.47838 24.0295 2.72258 23.5378 2.09779 22.9023C1.46186 22.278 0.969737 21.5226 0.655743 20.6886C0.347788 19.8932 0.136425 18.9841 0.075061 17.6545C0.0136974 16.3193 6.10352e-05 15.8943 6.10352e-05 12.5C6.10352e-05 9.10455 0.0148337 8.67955 0.075061 7.34773C0.135288 6.01591 0.347788 5.10682 0.655743 4.31136C0.970201 3.47737 1.4627 2.72195 2.09892 2.09773C2.72283 1.46193 3.47787 0.969822 4.31142 0.655682C5.10688 0.347727 6.01597 0.136364 7.34552 0.075H7.34665ZM17.5512 2.325C16.233 2.26477 15.8376 2.25227 12.5001 2.25227C9.16256 2.25227 8.76711 2.26477 7.44892 2.325C6.22961 2.38068 5.56824 2.58409 5.12733 2.75568C4.54438 2.98295 4.12733 3.25227 3.68983 3.68977C3.27511 4.09324 2.95595 4.58441 2.75574 5.12727C2.58415 5.56818 2.38074 6.22955 2.32506 7.44886C2.26483 8.76705 2.25233 9.1625 2.25233 12.5C2.25233 15.8375 2.26483 16.233 2.32506 17.5511C2.38074 18.7705 2.58415 19.4318 2.75574 19.8727C2.95574 20.4148 3.27506 20.9068 3.68983 21.3102C4.09324 21.725 4.58529 22.0443 5.12733 22.2443C5.56824 22.4159 6.22961 22.6193 7.44892 22.675C8.76711 22.7352 9.16142 22.7477 12.5001 22.7477C15.8387 22.7477 16.233 22.7352 17.5512 22.675C18.7705 22.6193 19.4319 22.4159 19.8728 22.2443C20.4557 22.017 20.8728 21.7477 21.3103 21.3102C21.7251 20.9068 22.0444 20.4148 22.2444 19.8727C22.416 19.4318 22.6194 18.7705 22.6751 17.5511C22.7353 16.233 22.7478 15.8375 22.7478 12.5C22.7478 9.1625 22.7353 8.76705 22.6751 7.44886C22.6194 6.22955 22.416 5.56818 22.2444 5.12727C22.0171 4.54432 21.7478 4.12727 21.3103 3.68977C20.9068 3.27508 20.4156 2.95592 19.8728 2.75568C19.4319 2.58409 18.7705 2.38068 17.5512 2.325ZM10.9035 16.3534C11.7951 16.7246 12.788 16.7747 13.7125 16.4951C14.637 16.2156 15.4357 15.6238 15.9723 14.8207C16.509 14.0177 16.7501 13.0533 16.6547 12.0922C16.5592 11.1311 16.133 10.2329 15.4489 9.55114C15.0128 9.11531 14.4855 8.7816 13.905 8.57403C13.3244 8.36646 12.7051 8.29018 12.0915 8.3507C11.478 8.41122 10.8855 8.60702 10.3567 8.92401C9.82785 9.241 9.37591 9.6713 9.03336 10.1839C8.69081 10.6965 8.46618 11.2787 8.37565 11.8886C8.28511 12.4984 8.33091 13.1208 8.50977 13.7108C8.68862 14.3008 8.99606 14.8439 9.40997 15.3008C9.82388 15.7578 10.334 16.1173 10.9035 16.3534ZM7.95688 7.95682C8.5535 7.3602 9.26179 6.88694 10.0413 6.56405C10.8208 6.24116 11.6563 6.07497 12.5001 6.07497C13.3438 6.07497 14.1793 6.24116 14.9588 6.56405C15.7383 6.88693 16.4466 7.3602 17.0432 7.95682C17.6399 8.55344 18.1131 9.26173 18.436 10.0412C18.7589 10.8208 18.9251 11.6563 18.9251 12.5C18.9251 13.3437 18.7589 14.1792 18.436 14.9588C18.1131 15.7383 17.6399 16.4466 17.0432 17.0432C15.8383 18.2481 14.2041 18.925 12.5001 18.925C10.796 18.925 9.16181 18.2481 7.95688 17.0432C6.75195 15.8383 6.07503 14.204 6.07503 12.5C6.07503 10.796 6.75195 9.16175 7.95688 7.95682ZM20.3501 7.03182C20.4979 6.89235 20.6163 6.72464 20.6981 6.53861C20.78 6.35258 20.8237 6.15201 20.8267 5.94878C20.8296 5.74556 20.7918 5.5438 20.7154 5.35547C20.639 5.16713 20.5256 4.99603 20.3818 4.85232C20.2381 4.7086 20.067 4.59518 19.8787 4.51877C19.6903 4.44236 19.4886 4.40452 19.2854 4.40748C19.0821 4.41044 18.8816 4.45415 18.6955 4.53602C18.5095 4.61789 18.3418 4.73624 18.2023 4.88409C17.9311 5.17162 17.7826 5.55355 17.7884 5.94878C17.7941 6.34402 17.9537 6.72145 18.2332 7.00096C18.5127 7.28046 18.8901 7.44003 19.2854 7.44579C19.6806 7.45156 20.0625 7.30306 20.3501 7.03182Z" fill="#F5F5F5"/>
</g>
<defs>
<clipPath id="clip0_113_128">
<rect width="25" height="25" fill="white"/>
</clipPath>
</defs>
</svg>
