<svg width="50" height="50" viewBox="0 0 50 50" fill="none" xmlns="http://www.w3.org/2000/svg">
<circle cx="25" cy="25" r="24" stroke="#F5F5F5" stroke-width="2"/>
<circle cx="25" cy="24.9999" r="21.7222" stroke="#F5F5F5"/>
<mask id="path-3-inside-1_113_139" fill="white">
<path fill-rule="evenodd" clip-rule="evenodd" d="M16 15.5555C15.4477 15.5555 15 16.0033 15 16.5555V20.1111C15 20.6634 15.4477 21.1111 16 21.1111H16.9753V31.1111H15.9999C15.4477 31.1111 14.9999 31.5589 14.9999 32.1111V35.6667C14.9999 36.219 15.4477 36.6667 15.9999 36.6667H22.8888C23.4411 36.6667 23.8888 36.219 23.8888 35.6667V31.1111H21.9136V21.1111H23.8889V16.5555C23.8889 16.0033 23.4412 15.5555 22.8889 15.5555H16Z"/>
</mask>
<path d="M16.9753 21.1111H18.9753V19.1111H16.9753V21.1111ZM16.9753 31.1111V33.1111H18.9753V31.1111H16.9753ZM23.8888 31.1111H25.8888V29.1111H23.8888V31.1111ZM21.9136 31.1111H19.9136V33.1111H21.9136V31.1111ZM21.9136 21.1111V19.1111H19.9136V21.1111H21.9136ZM23.8889 21.1111V23.1111H25.8889V21.1111H23.8889ZM17 16.5555C17 17.1078 16.5523 17.5555 16 17.5555V13.5555C14.3431 13.5555 13 14.8987 13 16.5555H17ZM17 20.1111V16.5555H13V20.1111H17ZM16 19.1111C16.5523 19.1111 17 19.5588 17 20.1111H13C13 21.768 14.3431 23.1111 16 23.1111V19.1111ZM16.9753 19.1111H16V23.1111H16.9753V19.1111ZM14.9753 21.1111V31.1111H18.9753V21.1111H14.9753ZM16.9753 29.1111H15.9999V33.1111H16.9753V29.1111ZM15.9999 29.1111C14.3431 29.1111 12.9999 30.4543 12.9999 32.1111H16.9999C16.9999 32.6634 16.5522 33.1111 15.9999 33.1111V29.1111ZM12.9999 32.1111V35.6667H16.9999V32.1111H12.9999ZM12.9999 35.6667C12.9999 37.3236 14.3431 38.6667 15.9999 38.6667V34.6667C16.5522 34.6667 16.9999 35.1144 16.9999 35.6667H12.9999ZM15.9999 38.6667H22.8888V34.6667H15.9999V38.6667ZM22.8888 38.6667C24.5457 38.6667 25.8888 37.3236 25.8888 35.6667H21.8888C21.8888 35.1144 22.3365 34.6667 22.8888 34.6667V38.6667ZM25.8888 35.6667V31.1111H21.8888V35.6667H25.8888ZM23.8888 29.1111H21.9136V33.1111H23.8888V29.1111ZM23.9136 31.1111V21.1111H19.9136V31.1111H23.9136ZM23.8889 19.1111H21.9136V23.1111H23.8889V19.1111ZM21.8889 16.5555V21.1111H25.8889V16.5555H21.8889ZM22.8889 17.5555C22.3366 17.5555 21.8889 17.1078 21.8889 16.5555H25.8889C25.8889 14.8987 24.5457 13.5555 22.8889 13.5555V17.5555ZM16 17.5555H22.8889V13.5555H16V17.5555Z" fill="#F5F5F5" mask="url(#path-3-inside-1_113_139)"/>
<path fill-rule="evenodd" clip-rule="evenodd" d="M31.9444 25.1276C34.5524 25.1276 36.6666 22.9848 36.6666 20.3416C36.6666 17.6983 34.5524 15.5555 31.9444 15.5555C30.5486 15.5555 29.3738 16.0862 28.5832 17.0292C28.2198 17.2858 27.758 17.6918 27.2222 18.3706C26.6412 19.1066 26.364 19.4578 26.1126 19.8266C25.8832 20.1631 25.6754 20.5143 25.2777 21.1859C24.6111 22.312 23.5185 24.4704 23.0555 25.4089H21.6666V26.8165H22.7777C23.2407 26.8165 24.3333 26.9292 25 27.3796C25.5825 27.7732 25.7578 28.1668 26.1902 29.1375C26.3763 29.5554 26.61 30.0802 26.9444 30.758L28.3333 33.5733C29 34.9246 30 36.0132 30.5555 36.3886H36.3888V34.9809C36.2037 34.8871 35.6666 34.5868 35 34.1363C34.1666 33.5733 34.0886 33.047 33.8888 31.6026C33.7314 30.4643 33.6496 30.2973 33.3502 29.6861C33.2696 29.5216 33.1733 29.3251 33.0555 29.0688C32.5 27.8598 32.3441 27.6187 31.3888 26.8165C30.3942 25.9813 29.2628 25.7612 28.2318 25.5606C27.9808 25.5117 27.7357 25.464 27.5 25.4089H24.7222C24.7222 25.5027 24.4444 25.6904 25 24.8458C25.5555 24.0012 26.6666 21.749 26.6666 21.749L27.5062 20.0471C27.502 20.144 27.4999 20.2422 27.4999 20.3416C27.4999 22.9848 29.3364 25.1276 31.9444 25.1276Z" fill="#F5F5F5"/>
<mask id="path-6-inside-2_113_139" fill="white">
<rect x="17" y="10" width="5" height="4" rx="1"/>
</mask>
<rect x="17" y="10" width="5" height="4" rx="1" stroke="#F5F5F5" stroke-width="3" mask="url(#path-6-inside-2_113_139)"/>
</svg>
