<svg width="50" height="50" viewBox="0 0 50 50" fill="none" xmlns="http://www.w3.org/2000/svg">
<circle cx="25" cy="25" r="24" stroke="#323232" stroke-width="2"/>
<circle cx="25" cy="25" r="21.7222" stroke="#323232"/>
<mask id="path-3-inside-1_26_17" fill="white">
<path fill-rule="evenodd" clip-rule="evenodd" d="M16 15.5555C15.4477 15.5555 15 16.0033 15 16.5555V20.1111C15 20.6634 15.4477 21.1111 16 21.1111H16.9753V31.1111H16C15.4477 31.1111 15 31.5589 15 32.1111V35.6667C15 36.219 15.4477 36.6667 16 36.6667H22.8889C23.4411 36.6667 23.8889 36.219 23.8889 35.6667V31.1111H21.9135V21.1111H23.8889V16.5555C23.8889 16.0033 23.4412 15.5555 22.8889 15.5555H16Z"/>
</mask>
<path d="M16.9753 21.1111H18.9753V19.1111H16.9753V21.1111ZM16.9753 31.1111V33.1111H18.9753V31.1111H16.9753ZM23.8889 31.1111H25.8889V29.1111H23.8889V31.1111ZM21.9135 31.1111H19.9135V33.1111H21.9135V31.1111ZM21.9135 21.1111V19.1111H19.9135V21.1111H21.9135ZM23.8889 21.1111V23.1111H25.8889V21.1111H23.8889ZM17 16.5555C17 17.1078 16.5523 17.5555 16 17.5555V13.5555C14.3431 13.5555 13 14.8987 13 16.5555H17ZM17 20.1111V16.5555H13V20.1111H17ZM16 19.1111C16.5523 19.1111 17 19.5588 17 20.1111H13C13 21.768 14.3431 23.1111 16 23.1111V19.1111ZM16.9753 19.1111H16V23.1111H16.9753V19.1111ZM14.9753 21.1111V31.1111H18.9753V21.1111H14.9753ZM16.9753 29.1111H16V33.1111H16.9753V29.1111ZM16 29.1111C14.3431 29.1111 13 30.4543 13 32.1111H17C17 32.6634 16.5523 33.1111 16 33.1111V29.1111ZM13 32.1111V35.6667H17V32.1111H13ZM13 35.6667C13 37.3236 14.3431 38.6667 16 38.6667V34.6667C16.5523 34.6667 17 35.1144 17 35.6667H13ZM16 38.6667H22.8889V34.6667H16V38.6667ZM22.8889 38.6667C24.5457 38.6667 25.8889 37.3236 25.8889 35.6667H21.8889C21.8889 35.1144 22.3366 34.6667 22.8889 34.6667V38.6667ZM25.8889 35.6667V31.1111H21.8889V35.6667H25.8889ZM23.8889 29.1111H21.9135V33.1111H23.8889V29.1111ZM23.9135 31.1111V21.1111H19.9135V31.1111H23.9135ZM23.8889 19.1111H21.9135V23.1111H23.8889V19.1111ZM21.8889 16.5555V21.1111H25.8889V16.5555H21.8889ZM22.8889 17.5555C22.3366 17.5555 21.8889 17.1078 21.8889 16.5555H25.8889C25.8889 14.8987 24.5457 13.5555 22.8889 13.5555V17.5555ZM16 17.5555H22.8889V13.5555H16V17.5555Z" fill="#323232" mask="url(#path-3-inside-1_26_17)"/>
<mask id="path-5-inside-2_26_17" fill="white">
<path fill-rule="evenodd" clip-rule="evenodd" d="M31.9444 25.1276C34.5524 25.1276 36.6666 22.9848 36.6666 20.3416C36.6666 17.6983 34.5524 15.5556 31.9444 15.5556C30.5486 15.5556 29.3738 16.0862 28.5833 17.0292C28.2198 17.2858 27.758 17.6918 27.2222 18.3706C26.6412 19.1067 26.364 19.4578 26.1126 19.8266C25.8832 20.1631 25.6754 20.5143 25.2777 21.1859C24.6111 22.3121 23.5185 24.4705 23.0555 25.4089H21.6666V26.8166H22.7777C23.2407 26.8166 24.3333 26.9292 25 27.3796C25.5825 27.7732 25.7578 28.1669 26.1902 29.1375C26.3763 29.5554 26.61 30.0802 26.9444 30.758L28.3333 33.5733C29 34.9247 30 36.0132 30.5555 36.3886H36.3888V34.981C36.2037 34.8871 35.6666 34.5868 35 34.1364C34.1666 33.5733 34.0886 33.0471 33.8888 31.6026C33.7314 30.4643 33.6496 30.2973 33.3502 29.6861C33.2696 29.5217 33.1733 29.3251 33.0555 29.0688C32.5 27.8598 32.3441 27.6187 31.3888 26.8166C30.3942 25.9813 29.2628 25.7612 28.2318 25.5606C27.9808 25.5117 27.7357 25.464 27.5 25.4089H24.7222C24.7222 25.5028 24.4444 25.6904 25 24.8458C25.5555 24.0013 26.6666 21.749 26.6666 21.749L27.5062 20.0471C27.5021 20.144 27.5 20.2422 27.5 20.3416C27.5 22.9848 29.3364 25.1276 31.9444 25.1276Z"/>
</mask>
<path fill-rule="evenodd" clip-rule="evenodd" d="M31.9444 25.1276C34.5524 25.1276 36.6666 22.9848 36.6666 20.3416C36.6666 17.6983 34.5524 15.5556 31.9444 15.5556C30.5486 15.5556 29.3738 16.0862 28.5833 17.0292C28.2198 17.2858 27.758 17.6918 27.2222 18.3706C26.6412 19.1067 26.364 19.4578 26.1126 19.8266C25.8832 20.1631 25.6754 20.5143 25.2777 21.1859C24.6111 22.3121 23.5185 24.4705 23.0555 25.4089H21.6666V26.8166H22.7777C23.2407 26.8166 24.3333 26.9292 25 27.3796C25.5825 27.7732 25.7578 28.1669 26.1902 29.1375C26.3763 29.5554 26.61 30.0802 26.9444 30.758L28.3333 33.5733C29 34.9247 30 36.0132 30.5555 36.3886H36.3888V34.981C36.2037 34.8871 35.6666 34.5868 35 34.1364C34.1666 33.5733 34.0886 33.0471 33.8888 31.6026C33.7314 30.4643 33.6496 30.2973 33.3502 29.6861C33.2696 29.5217 33.1733 29.3251 33.0555 29.0688C32.5 27.8598 32.3441 27.6187 31.3888 26.8166C30.3942 25.9813 29.2628 25.7612 28.2318 25.5606C27.9808 25.5117 27.7357 25.464 27.5 25.4089H24.7222C24.7222 25.5028 24.4444 25.6904 25 24.8458C25.5555 24.0013 26.6666 21.749 26.6666 21.749L27.5062 20.0471C27.5021 20.144 27.5 20.2422 27.5 20.3416C27.5 22.9848 29.3364 25.1276 31.9444 25.1276Z" fill="#323232"/>
<path d="M28.5833 17.0292L29.16 17.8462L29.2661 17.7712L29.3496 17.6716L28.5833 17.0292ZM27.2222 18.3706L26.4372 17.7511V17.7511L27.2222 18.3706ZM26.1126 19.8266L26.9389 20.3899L26.9389 20.3899L26.1126 19.8266ZM25.2777 21.1859L24.4172 20.6765L25.2777 21.1859ZM23.0555 25.4089V26.4089H23.6772L23.9523 25.8513L23.0555 25.4089ZM21.6666 25.4089V24.4089H20.6666V25.4089H21.6666ZM21.6666 26.8166H20.6666V27.8166H21.6666V26.8166ZM25 27.3796L25.5598 26.551H25.5598L25 27.3796ZM26.1902 29.1375L27.1036 28.7306V28.7306L26.1902 29.1375ZM26.9444 30.758L26.0476 31.2004H26.0476L26.9444 30.758ZM28.3333 33.5733L29.2301 33.1309H29.2301L28.3333 33.5733ZM30.5555 36.3886L29.9957 37.2172L30.2493 37.3886H30.5555V36.3886ZM36.3888 36.3886V37.3886H37.3888V36.3886H36.3888ZM36.3888 34.981H37.3888V34.3666L36.8409 34.089L36.3888 34.981ZM35 34.1364L34.4401 34.965L34.4401 34.965L35 34.1364ZM33.8888 31.6026L34.8794 31.4656L33.8888 31.6026ZM33.3502 29.6861L32.4521 30.1261L32.4521 30.1261L33.3502 29.6861ZM33.0555 29.0688L33.9642 28.6513V28.6513L33.0555 29.0688ZM31.3888 26.8166L30.7458 27.5824H30.7458L31.3888 26.8166ZM28.2318 25.5606L28.0408 26.5422H28.0408L28.2318 25.5606ZM27.5 25.4089L27.7277 24.4352L27.6153 24.4089H27.5V25.4089ZM24.7222 25.4089V24.4089H23.7222V25.4089H24.7222ZM25 24.8458L25.8354 25.3954H25.8354L25 24.8458ZM26.6666 21.749L25.7698 21.3066L26.6666 21.749ZM27.5062 20.0471L28.5053 20.0902L26.6094 19.6047L27.5062 20.0471ZM35.6666 20.3416C35.6666 22.4453 33.9875 24.1276 31.9444 24.1276V26.1276C35.1173 26.1276 37.6666 23.5244 37.6666 20.3416H35.6666ZM31.9444 16.5556C33.9875 16.5556 35.6666 18.2379 35.6666 20.3416H37.6666C37.6666 17.1588 35.1173 14.5556 31.9444 14.5556V16.5556ZM29.3496 17.6716C29.9312 16.9779 30.8136 16.5556 31.9444 16.5556V14.5556C30.2837 14.5556 28.8164 15.1945 27.817 16.3868L29.3496 17.6716ZM28.0066 16.2122C27.5585 16.5285 27.0279 17.0028 26.4372 17.7511L28.0071 18.9902C28.4882 18.3808 28.8811 18.043 29.16 17.8462L28.0066 16.2122ZM26.4372 17.7511C25.8648 18.4763 25.562 18.859 25.2864 19.2634L26.9389 20.3899C27.1661 20.0566 27.4177 19.737 28.0071 18.9902L26.4372 17.7511ZM25.2864 19.2634C25.035 19.6321 24.809 20.0148 24.4172 20.6765L26.1383 21.6954C26.5417 21.0138 26.7315 20.6941 26.9389 20.3899L25.2864 19.2634ZM24.4172 20.6765C23.7285 21.8399 22.6204 24.0307 22.1587 24.9665L23.9523 25.8513C24.4166 24.9103 25.4936 22.7843 26.1383 21.6954L24.4172 20.6765ZM23.0555 24.4089H21.6666V26.4089H23.0555V24.4089ZM20.6666 25.4089V26.8166H22.6666V25.4089H20.6666ZM21.6666 27.8166H22.7777V25.8166H21.6666V27.8166ZM22.7777 27.8166C22.9448 27.8166 23.2667 27.8385 23.6127 27.909C23.9718 27.9822 24.2642 28.0894 24.4401 28.2082L25.5598 26.551C25.069 26.2194 24.4818 26.0451 24.0122 25.9493C23.5295 25.8509 23.0736 25.8166 22.7777 25.8166V27.8166ZM24.4401 28.2082C24.6214 28.3307 24.7126 28.4292 24.8071 28.578C24.9295 28.7709 25.0492 29.0337 25.2767 29.5444L27.1036 28.7306C26.6868 27.7949 26.4139 27.1281 25.5598 26.551L24.4401 28.2082ZM25.2767 29.5444C25.4636 29.964 25.704 30.5039 26.0476 31.2004L27.8412 30.3156C27.516 29.6565 27.289 29.1467 27.1036 28.7306L25.2767 29.5444ZM26.0476 31.2004L27.4365 34.0157L29.2301 33.1309L27.8412 30.3156L26.0476 31.2004ZM27.4365 34.0157C28.1624 35.4872 29.2664 36.7245 29.9957 37.2172L31.1154 35.56C30.7335 35.302 29.8375 34.3621 29.2301 33.1309L27.4365 34.0157ZM30.5555 37.3886H36.3888V35.3886H30.5555V37.3886ZM37.3888 36.3886V34.981H35.3888V36.3886H37.3888ZM36.8409 34.089C36.6983 34.0167 36.1973 33.7385 35.5598 33.3078L34.4401 34.965C35.1359 35.4351 35.709 35.7575 35.9368 35.873L36.8409 34.089ZM35.5598 33.3078C35.2782 33.1175 35.2004 32.996 35.1389 32.8378C35.0425 32.5896 34.9856 32.2332 34.8794 31.4656L32.8983 31.7396C32.9919 32.4165 33.0739 33.0454 33.2747 33.5622C33.5105 34.169 33.8884 34.5922 34.4401 34.965L35.5598 33.3078ZM34.8794 31.4656C34.8002 30.8927 34.7323 30.5007 34.6312 30.1613C34.5262 29.8088 34.3931 29.542 34.2482 29.2461L32.4521 30.1261C32.6066 30.4414 32.6642 30.5637 32.7144 30.7321C32.7684 30.9136 32.8201 31.1742 32.8983 31.7396L34.8794 31.4656ZM34.2482 29.2461C34.168 29.0825 34.0764 28.8954 33.9642 28.6513L32.1469 29.4864C32.2702 29.7547 32.3712 29.9608 32.4521 30.1261L34.2482 29.2461ZM33.9642 28.6513C33.6915 28.0578 33.4754 27.605 33.1794 27.2C32.8754 26.7841 32.5173 26.4583 32.0319 26.0508L30.7458 27.5824C31.2157 27.977 31.4131 28.1728 31.5647 28.3802C31.7243 28.5986 31.864 28.8708 32.1469 29.4864L33.9642 28.6513ZM32.0319 26.0508C30.8139 25.028 29.433 24.7755 28.4228 24.579L28.0408 26.5422C29.0926 26.7468 29.9745 26.9347 30.7458 27.5824L32.0319 26.0508ZM28.4228 24.579C28.1682 24.5294 27.9419 24.4853 27.7277 24.4352L27.2722 26.3826C27.5295 26.4428 27.7934 26.494 28.0408 26.5422L28.4228 24.579ZM27.5 24.4089H24.7222V26.4089H27.5V24.4089ZM23.7222 25.4089C23.7222 25.1966 23.7926 25.0452 23.825 24.9833C23.8639 24.9088 23.9138 24.8396 23.9756 24.7769C24.0068 24.7453 24.0572 24.6989 24.1279 24.6528C24.1835 24.6165 24.333 24.5256 24.5517 24.501C24.8248 24.4702 25.1968 24.5542 25.449 24.8829C25.6443 25.1373 25.6527 25.398 25.6527 25.4793C25.6527 25.5854 25.6348 25.6648 25.6266 25.6975C25.6169 25.7366 25.6071 25.7637 25.6029 25.7747C25.5947 25.7961 25.593 25.7961 25.6085 25.7663C25.6389 25.7083 25.7056 25.5927 25.8354 25.3954L24.1645 24.2963C24.0165 24.5213 23.9097 24.699 23.8358 24.8403C23.7993 24.9103 23.7628 24.9865 23.733 25.0651C23.7144 25.1141 23.6527 25.276 23.6527 25.4793C23.6527 25.5723 23.6634 25.8411 23.8624 26.1005C24.1184 26.4341 24.4959 26.5199 24.7755 26.4884C25.0007 26.463 25.1578 26.3689 25.2215 26.3273C25.3004 26.2758 25.3594 26.222 25.3993 26.1816C25.4785 26.1014 25.5457 26.0088 25.5977 25.9093C25.6431 25.8225 25.7222 25.6446 25.7222 25.4089H23.7222ZM25.8354 25.3954C26.1462 24.923 26.5857 24.1028 26.9291 23.4416C27.1052 23.1024 27.2635 22.7905 27.3777 22.5635C27.4348 22.4499 27.481 22.3573 27.5131 22.2929C27.5291 22.2608 27.5416 22.2356 27.5501 22.2184C27.5544 22.2098 27.5576 22.2032 27.5599 22.1986C27.561 22.1964 27.5619 22.1946 27.5625 22.1934C27.5627 22.1928 27.563 22.1924 27.5631 22.192C27.5632 22.1919 27.5633 22.1917 27.5633 22.1916C27.5634 22.1916 27.5634 22.1915 27.5634 22.1915C27.5634 22.1915 27.5634 22.1914 26.6666 21.749C25.7698 21.3066 25.7698 21.3066 25.7698 21.3066C25.7698 21.3066 25.7698 21.3066 25.7698 21.3066C25.7698 21.3066 25.7698 21.3067 25.7697 21.3068C25.7696 21.307 25.7694 21.3074 25.7692 21.3079C25.7687 21.3088 25.768 21.3103 25.767 21.3124C25.765 21.3164 25.7619 21.3225 25.7579 21.3306C25.7499 21.3468 25.738 21.3709 25.7225 21.4019C25.6916 21.464 25.6467 21.554 25.591 21.6648C25.4795 21.8864 25.3253 22.1904 25.1542 22.5198C24.8031 23.1959 24.4093 23.9241 24.1645 24.2963L25.8354 25.3954ZM27.5634 22.1914L28.403 20.4895L26.6094 19.6047L25.7698 21.3066L27.5634 22.1914ZM28.5 20.3416C28.5 20.2563 28.5018 20.1725 28.5053 20.0902L26.5072 20.004C26.5024 20.1155 26.5 20.228 26.5 20.3416H28.5ZM31.9444 24.1276C29.9788 24.1276 28.5 22.5272 28.5 20.3416H26.5C26.5 23.4425 28.694 26.1276 31.9444 26.1276V24.1276Z" fill="#323232" mask="url(#path-5-inside-2_26_17)"/>
<mask id="path-7-inside-3_26_17" fill="white">
<rect x="17" y="10" width="5" height="4" rx="1"/>
</mask>
<rect x="17" y="10" width="5" height="4" rx="1" stroke="#323232" stroke-width="3" mask="url(#path-7-inside-3_26_17)"/>
</svg>
