<svg width="24" height="40" viewBox="0 0 24 40" fill="none" xmlns="http://www.w3.org/2000/svg">
<path d="M19.3846 0H4.61538C2.06769 0 0 2.03636 0 4.54545V35.4545C0 37.9636 2.06769 40 4.61538 40H19.3846C21.9323 40 24 37.9636 24 35.4545V4.54545C24 2.03636 21.9323 0 19.3846 0ZM12 38.1818C10.4677 38.1818 9.23077 36.9636 9.23077 35.4545C9.23077 33.9455 10.4677 32.7273 12 32.7273C13.5323 32.7273 14.7692 33.9455 14.7692 35.4545C14.7692 36.9636 13.5323 38.1818 12 38.1818ZM20.3077 30.9091H3.69231V5.45455H20.3077V30.9091Z" fill="#323232"/>
</svg>
