<svg width="25" height="25" viewBox="0 0 25 25" fill="none" xmlns="http://www.w3.org/2000/svg">
<g clip-path="url(#clip0_113_123)">
<path d="M11.8421 0.00363778C9.72824 0.0278565 5.18365 0.357544 2.64178 2.57083C0.751009 4.34895 0.0908461 6.97786 0.0134704 10.2286C-0.050735 13.4677 -0.128111 19.5505 6.0496 21.2068V23.7294C6.0496 23.7294 6.01091 24.7388 6.71388 24.9458C7.57983 25.206 8.0729 24.4294 8.89604 23.595L10.4312 21.9474C14.6581 22.281 17.8955 21.5122 18.2684 21.3982C19.1261 21.138 23.9571 20.5521 24.7465 14.4685C25.5565 8.18567 24.3523 4.22708 22.1783 2.43645H22.1652C21.5091 1.86301 18.8726 0.0395753 12.9821 0.0192628C12.9821 0.0192628 12.545 -0.00886222 11.8421 0.00285653V0.00363778ZM11.9145 1.77004C12.5146 1.76614 12.8792 1.79036 12.8792 1.79036C17.865 1.80286 20.2448 3.22707 20.8061 3.70676C22.6368 5.19582 23.5801 8.76458 22.8895 14.0099C22.2335 19.0958 18.3153 19.4177 17.5901 19.6372C17.2814 19.731 14.4301 20.3982 10.8378 20.1786C10.8378 20.1786 8.16262 23.2427 7.3263 24.0318C7.19378 24.17 7.03902 24.2107 6.94025 24.1904C6.79867 24.1575 6.75586 23.9911 6.76409 23.763L6.78961 19.5763C1.55029 18.2013 1.85896 13.013 1.91494 10.3029C1.97914 7.5927 2.51501 5.37551 4.11027 3.87395C6.25786 2.03098 10.1168 1.78254 11.9129 1.77004H11.9145ZM12.3096 4.47942C12.2665 4.47901 12.2237 4.4867 12.1838 4.50205C12.1438 4.5174 12.1074 4.54012 12.0767 4.56887C12.046 4.59763 12.0216 4.63187 12.005 4.66962C11.9883 4.70736 11.9797 4.74786 11.9795 4.78879C11.9795 4.96379 12.1294 5.10208 12.3096 5.10208C13.1258 5.08734 13.9369 5.22611 14.6963 5.51038C15.4557 5.79464 16.1482 6.21878 16.734 6.75833C17.9301 7.86067 18.5129 9.34192 18.5351 11.2786C18.5351 11.4497 18.6808 11.5919 18.8652 11.5919V11.5794C18.9521 11.5796 19.0355 11.5472 19.0974 11.4893C19.1592 11.4313 19.1944 11.3525 19.1952 11.27C19.2352 10.3584 19.0795 9.44865 18.7374 8.59595C18.3954 7.74326 17.8743 6.96548 17.2057 6.30989C15.9027 5.10129 14.2514 4.47864 12.3096 4.47864V4.47942ZM7.97083 5.19582C7.73783 5.16351 7.50021 5.2079 7.29749 5.32161H7.28021C6.80958 5.58343 6.38562 5.91436 6.02408 6.30208C5.72364 6.63176 5.56065 6.96536 5.51785 7.28645C5.49233 7.47786 5.50962 7.66926 5.56971 7.85207L5.59111 7.86458C5.92942 8.80832 6.37145 9.71614 6.91144 10.5708C7.60701 11.7716 8.46303 12.8821 9.45825 13.8747L9.48788 13.9154L9.5348 13.9482L9.56444 13.981L9.59901 14.0091C10.6487 14.9564 11.8216 15.7727 13.0891 16.438C14.5379 17.1864 15.417 17.5404 15.9446 17.6872V17.695C16.0994 17.7396 16.2402 17.7599 16.3817 17.7599C16.8314 17.7286 17.2571 17.5553 17.5909 17.2677C17.9976 16.9245 18.3424 16.5204 18.6116 16.0716V16.0638C18.8643 15.6122 18.7787 15.1849 18.4141 14.8958C17.6838 14.29 16.8941 13.7518 16.0558 13.2888C15.4944 12.9997 14.9239 13.1747 14.6926 13.4677L14.1996 14.0575C13.9469 14.3505 13.4876 14.3099 13.4876 14.3099L13.4744 14.3177C10.0493 13.4872 9.13558 10.1958 9.13558 10.1958C9.13558 10.1958 9.09277 9.74817 9.40969 9.52004L10.027 9.04817C10.3226 8.82004 10.5283 8.27942 10.2114 7.74582C9.72692 6.94907 9.16118 6.19938 8.52233 5.50754C8.38267 5.34444 8.18674 5.23347 7.96918 5.19426L7.97083 5.19582ZM12.8792 6.12395C12.4422 6.12395 12.4422 6.75051 12.8834 6.75051C13.4269 6.75888 13.9633 6.86882 14.462 7.07405C14.9607 7.27929 15.412 7.57579 15.7899 7.94661C16.1346 8.30755 16.3996 8.7305 16.569 9.19039C16.7383 9.65028 16.8088 10.1378 16.776 10.624C16.7775 10.7062 16.8129 10.7847 16.8746 10.8425C16.9363 10.9003 17.0194 10.9329 17.1061 10.9333L17.1193 10.9497C17.2066 10.9491 17.2902 10.9159 17.352 10.8573C17.4137 10.7987 17.4487 10.7193 17.4494 10.6364C17.479 9.39504 17.0724 8.35364 16.2747 7.51926C15.473 6.68489 14.3543 6.21692 12.9262 6.12395H12.8792ZM13.4201 7.80832C12.9698 7.79583 12.9525 8.43489 13.3987 8.44739C14.4836 8.50051 15.0104 9.02082 15.0795 10.0911C15.081 10.1724 15.116 10.2498 15.1769 10.3069C15.2378 10.364 15.3199 10.3962 15.4055 10.3966H15.4187C15.4627 10.3948 15.5059 10.3847 15.5457 10.3669C15.5856 10.3491 15.6213 10.3239 15.6508 10.2929C15.6803 10.2618 15.703 10.2255 15.7176 10.186C15.7321 10.1466 15.7382 10.1047 15.7356 10.063C15.6582 8.6677 14.8564 7.88176 13.4332 7.80911H13.4201V7.80832Z" fill="#F5F5F5"/>
</g>
<defs>
<clipPath id="clip0_113_123">
<rect width="25" height="25" fill="white"/>
</clipPath>
</defs>
</svg>
