<svg width="125" height="25" viewBox="0 0 125 25" fill="none" xmlns="http://www.w3.org/2000/svg">
<path d="M24.2188 9.84375H15.2734L12.5 1.17188L9.72656 9.84375H0.78125L8.00781 15.1953L5.27344 23.8281L12.5 18.4766L19.7266 23.8281L16.9531 15.1562L24.2188 9.84375Z" fill="#FFCE31"/>
<path d="M49.2188 9.84375H40.2734L37.5 1.17188L34.7266 9.84375H25.7812L33.0078 15.1953L30.2734 23.8281L37.5 18.4766L44.7266 23.8281L41.9531 15.1562L49.2188 9.84375Z" fill="#FFCE31"/>
<path d="M74.2188 9.84375H65.2734L62.5 1.17188L59.7266 9.84375H50.7812L58.0078 15.1953L55.2734 23.8281L62.5 18.4766L69.7266 23.8281L66.9531 15.1562L74.2188 9.84375Z" fill="#FFCE31"/>
<path d="M99.2188 9.84375H90.2734L87.5 1.17188L84.7266 9.84375H75.7812L83.0078 15.1953L80.2734 23.8281L87.5 18.4766L94.7266 23.8281L91.9531 15.1562L99.2188 9.84375Z" fill="#FFCE31"/>
<path d="M124.219 9.84375H115.273L112.5 1.17188L109.727 9.84375H100.781L108.008 15.1953L105.273 23.8281L112.5 18.4766L119.727 23.8281L116.953 15.1562L124.219 9.84375Z" fill="#FFCE31"/>
</svg>
